# xmcd
#
# Track frame offsets:
#	150
#	10734
#	20423
#	30647
#	39155
#	53024
#	67211
#	82576
#	93857
#	104994
#	116861
#	130083
#	141901
#	150622
#	162361
#	177097
#	190152
#	202204
#	214269
#	224757
#	242281
#	252494
#	265187
#	278733
#
# Disc length: 3905 seconds
#
# Revision: 1
# Processed by: cddbd v1.5.1PL0 Copyright (c) Steve Scherf et al.
# Submitted via: EasyCDDAExtractor 7.0.6.1
#
DISCID=5a0f3f18
DTITLE=Rick And Thel Carey
DYEAR=1900
DGENRE=Country
TTITLE0=You Thought I Thought
TTITLE1=I'm Blaming You
TTITLE2=Talking In Your Sleep
TTITLE3=Three Ways Of Knowing
TTITLE4=White Crosses In The Jungle
TTITLE5=Man And Woman
TTITLE6=Why Do We Go on This Way
TTITLE7=Let's Talk It Over
TTITLE8=Thanks For The Lesson
TTITLE9=How About Me
TTITLE10=Rusty's Love
TTITLE11=Let's Pull Together
TTITLE12=Would You Mind
TTITLE13=Somebody's Dad
TTITLE14=I Love You Best Of All
TTITLE15=The First Rose
TTITLE16=Before I Met You
TTITLE17=I Heard The Bluebirds Sing
TTITLE18=The Stairs That Namatjira Climbs
TTITLE19=When I Went Back To Suvla Bay
TTITLE20=I've Had It
TTITLE21=Goodbye Mr Brown
TTITLE22=Poor Folks
TTITLE23=Change Your Ways
EXTD=
EXTT0=
EXTT1=
EXTT2=
EXTT3=
EXTT4=
EXTT5=
EXTT6=
EXTT7=
EXTT8=
EXTT9=
EXTT10=
EXTT11=
EXTT12=
EXTT13=
EXTT14=
EXTT15=
EXTT16=
EXTT17=
EXTT18=
EXTT19=
EXTT20=
EXTT21=
EXTT22=
EXTT23=
PLAYORDER=
